# xmcd
#
# Track frame offsets:
#	150
#	21990
#	40992
#	66192
#	80662
#	98910
#	116717
#	134227
#	152410
#	170275
#	182407
#	196360
#	217610
#	235745
#	254700
#	270092
#	287292
#	301367
#	316855
#	333860
#
# Disc length: 4748 seconds
# Revision: 4
# Processed by: cddbd v1.5.2PL0 Copyright (c) Steve Scherf et al.
# Submitted via: dBpowerAMP V12.0
#
DISCID=0f128a14
DTITLE=Various / I Love U
DYEAR=2004
DGENRE=Pop/Rock
TTITLE0=Billy Joel / Just the Way You Are
TTITLE1=Simply Red / Holding Back the Years
TTITLE2=Spandau Ballet / True
TTITLE3=P.P. Arnold / First Cut Is the Deepest
TTITLE4=Hollies, The / The Air That I Breathe
TTITLE5=Cliff Richard / Miss You Nights
TTITLE6=Judie Tzuke / Stay with Me Till Dawn
TTITLE7=Hot Chocolate / It Started with a Kiss
TTITLE8=Boris Gardiner / I Want to Wake Up with You
TTITLE9=Shirelles, The / Will You Love Me Tomorrow
TTITLE10=Jackie DeShannon / What the World Needs Now Is Love
TTITLE11=Eva Cassidy / Fields of Gold
TTITLE12=Robbie Williams / Angels
TTITLE13=Melanie C / Never Be the Same Again
TTITLE14=Blue / If You Come Back
TTITLE15=Gareth Gates / Anyone of Us (Stupid Mistake)
TTITLE16=Atomic Kitten / The Last Goodbye
TTITLE17=Liberty X / Holding on for You
TTITLE18=Donna Gardier / How Sweet It Is (To Be Loved by You)
TTITLE19=Easther Bennett / The First Time Ever I Saw Your Face
EXTD=
EXTT0=
EXTT1=
EXTT2=
EXTT3=
EXTT4=
EXTT5=
EXTT6=
EXTT7=
EXTT8=
EXTT9=
EXTT10=
EXTT11=
EXTT12=
EXTT13=
EXTT14=
EXTT15=
EXTT16=
EXTT17=
EXTT18=
EXTT19=
PLAYORDER=
